<svg xmlns="http://www.w3.org/2000/svg" xmlns:xlink="http://www.w3.org/1999/xlink" width="256" zoomAndPan="magnify" viewBox="0 0 192 153.750002" height="205" preserveAspectRatio="xMidYMid meet" version="1.0"><defs><g/><clipPath id="f2c603f22b"><path d="M 154 0 L 183 0 L 183 124.296875 L 154 124.296875 Z M 154 0 " clip-rule="nonzero"/></clipPath><clipPath id="d1c5a390ac"><path d="M 8 0 L 38 0 L 38 124.296875 L 8 124.296875 Z M 8 0 " clip-rule="nonzero"/></clipPath></defs><path fill="#3998ff" d="M 95.785156 17.855469 C 71.292969 17.855469 51.371094 37.773438 51.371094 62.265625 C 51.371094 86.757812 71.292969 106.679688 95.785156 106.679688 C 120.273438 106.679688 140.195312 86.757812 140.195312 62.265625 C 140.195312 37.773438 120.273438 17.855469 95.785156 17.855469 Z M 95.785156 103.125 C 73.253906 103.125 54.925781 84.796875 54.925781 62.265625 C 54.925781 39.738281 73.253906 21.40625 95.785156 21.40625 C 118.3125 21.40625 136.644531 39.738281 136.644531 62.265625 C 136.644531 84.796875 118.3125 103.125 95.785156 103.125 Z M 95.785156 103.125 " fill-opacity="1" fill-rule="nonzero"/><path fill="#3998ff" d="M 95.785156 53.382812 C 90.886719 53.382812 86.902344 57.371094 86.902344 62.265625 C 86.902344 67.164062 90.886719 71.148438 95.785156 71.148438 C 100.683594 71.148438 104.664062 67.164062 104.664062 62.265625 C 104.664062 57.371094 100.683594 53.382812 95.785156 53.382812 Z M 95.785156 67.59375 C 92.84375 67.59375 90.453125 65.203125 90.453125 62.265625 C 90.453125 59.328125 92.84375 56.9375 95.785156 56.9375 C 98.722656 56.9375 101.113281 59.328125 101.113281 62.265625 C 101.113281 65.203125 98.722656 67.59375 95.785156 67.59375 Z M 95.785156 67.59375 " fill-opacity="1" fill-rule="nonzero"/><path fill="#3998ff" d="M 142.261719 15.785156 C 141.566406 15.09375 140.441406 15.09375 139.746094 15.785156 C 139.054688 16.480469 139.054688 17.605469 139.746094 18.296875 C 151.496094 30.042969 157.960938 45.660156 157.960938 62.265625 C 157.960938 78.871094 151.496094 94.484375 139.746094 106.230469 C 139.054688 106.921875 139.054688 108.050781 139.746094 108.742188 C 140.097656 109.089844 140.550781 109.261719 141.003906 109.261719 C 141.460938 109.261719 141.914062 109.085938 142.261719 108.742188 C 154.675781 96.328125 161.511719 79.820312 161.511719 62.265625 C 161.511719 44.710938 154.675781 28.203125 142.261719 15.785156 Z M 142.261719 15.785156 " fill-opacity="1" fill-rule="nonzero"/><path fill="#3998ff" d="M 51.816406 18.296875 C 52.507812 17.605469 52.507812 16.480469 51.816406 15.785156 C 51.121094 15.09375 49.996094 15.09375 49.304688 15.785156 C 23.675781 41.414062 23.675781 83.113281 49.304688 108.742188 C 49.652344 109.089844 50.105469 109.261719 50.5625 109.261719 C 51.015625 109.261719 51.472656 109.085938 51.820312 108.742188 C 52.511719 108.050781 52.511719 106.921875 51.820312 106.230469 C 27.578125 81.988281 27.578125 42.542969 51.816406 18.296875 Z M 51.816406 18.296875 " fill-opacity="1" fill-rule="nonzero"/><g clip-path="url(#f2c603f22b)"><path fill="#3998ff" d="M 157.335938 0.714844 C 156.640625 0.0195312 155.515625 0.0195312 154.824219 0.714844 C 154.128906 1.40625 154.128906 2.535156 154.824219 3.226562 C 187.375 35.78125 187.375 88.75 154.824219 121.304688 C 154.128906 122 154.128906 123.125 154.824219 123.816406 C 155.171875 124.164062 155.625 124.335938 156.082031 124.335938 C 156.535156 124.335938 156.992188 124.164062 157.339844 123.816406 C 191.273438 89.875 191.273438 34.652344 157.335938 0.714844 Z M 157.335938 0.714844 " fill-opacity="1" fill-rule="nonzero"/></g><g clip-path="url(#d1c5a390ac)"><path fill="#3998ff" d="M 36.742188 3.226562 C 37.4375 2.535156 37.4375 1.40625 36.742188 0.714844 C 36.050781 0.0195312 34.925781 0.0195312 34.230469 0.714844 C 0.292969 34.652344 0.292969 89.878906 34.230469 123.816406 C 34.578125 124.164062 35.035156 124.335938 35.488281 124.335938 C 35.945312 124.335938 36.398438 124.164062 36.746094 123.816406 C 37.441406 123.125 37.441406 122 36.746094 121.304688 C 4.1875 88.75 4.1875 35.777344 36.742188 3.226562 Z M 36.742188 3.226562 " fill-opacity="1" fill-rule="nonzero"/></g><g fill="#0c0c63" fill-opacity="1"><g transform="translate(44.641034, 138.632682)"><g><path d="M 10.78125 -20.796875 C 13.394531 -20.796875 15.539062 -20.265625 17.21875 -19.203125 C 18.90625 -18.140625 19.769531 -16.570312 19.8125 -14.5 L 19.8125 -14.140625 L 13.65625 -14.140625 L 13.65625 -14.25 C 13.65625 -14.851562 13.4375 -15.351562 13 -15.75 C 12.570312 -16.144531 11.910156 -16.34375 11.015625 -16.34375 C 10.148438 -16.34375 9.484375 -16.210938 9.015625 -15.953125 C 8.546875 -15.691406 8.3125 -15.375 8.3125 -15 C 8.3125 -14.46875 8.628906 -14.070312 9.265625 -13.8125 C 9.898438 -13.550781 10.921875 -13.285156 12.328125 -13.015625 C 13.972656 -12.671875 15.320312 -12.316406 16.375 -11.953125 C 17.4375 -11.585938 18.363281 -10.988281 19.15625 -10.15625 C 19.945312 -9.320312 20.351562 -8.191406 20.375 -6.765625 C 20.375 -4.359375 19.554688 -2.566406 17.921875 -1.390625 C 16.285156 -0.222656 14.101562 0.359375 11.375 0.359375 C 8.1875 0.359375 5.707031 -0.171875 3.9375 -1.234375 C 2.164062 -2.304688 1.28125 -4.203125 1.28125 -6.921875 L 7.484375 -6.921875 C 7.484375 -5.890625 7.75 -5.203125 8.28125 -4.859375 C 8.820312 -4.515625 9.65625 -4.34375 10.78125 -4.34375 C 11.613281 -4.34375 12.300781 -4.429688 12.84375 -4.609375 C 13.382812 -4.785156 13.65625 -5.148438 13.65625 -5.703125 C 13.65625 -6.203125 13.351562 -6.570312 12.75 -6.8125 C 12.144531 -7.0625 11.160156 -7.328125 9.796875 -7.609375 C 8.140625 -7.960938 6.765625 -8.332031 5.671875 -8.71875 C 4.585938 -9.101562 3.640625 -9.738281 2.828125 -10.625 C 2.015625 -11.519531 1.609375 -12.726562 1.609375 -14.25 C 1.609375 -16.488281 2.472656 -18.140625 4.203125 -19.203125 C 5.929688 -20.265625 8.125 -20.796875 10.78125 -20.796875 Z M 10.78125 -20.796875 "/></g></g></g><g fill="#0c0c63" fill-opacity="1"><g transform="translate(66.079981, 138.632682)"><g><path d="M 2.5 0 L 2.5 -20.4375 L 9.0625 -20.4375 L 9.0625 0 Z M 2.5 0 "/></g></g></g><g fill="#0c0c63" fill-opacity="1"><g transform="translate(77.63089, 138.632682)"><g><path d="M 21.59375 -14.171875 C 21.59375 -12.921875 21.253906 -11.789062 20.578125 -10.78125 C 19.910156 -9.769531 18.929688 -9.023438 17.640625 -8.546875 L 22.1875 0 L 14.828125 0 L 11.203125 -7.453125 L 8.765625 -7.453125 L 8.765625 0 L 2.203125 0 L 2.203125 -20.4375 L 14.703125 -20.4375 C 16.171875 -20.4375 17.421875 -20.15625 18.453125 -19.59375 C 19.492188 -19.03125 20.273438 -18.265625 20.796875 -17.296875 C 21.328125 -16.335938 21.59375 -15.296875 21.59375 -14.171875 Z M 14.90625 -13.90625 C 14.90625 -14.4375 14.726562 -14.878906 14.375 -15.234375 C 14.019531 -15.585938 13.582031 -15.765625 13.0625 -15.765625 L 8.765625 -15.765625 L 8.765625 -12 L 13.0625 -12 C 13.582031 -12 14.019531 -12.179688 14.375 -12.546875 C 14.726562 -12.910156 14.90625 -13.363281 14.90625 -13.90625 Z M 14.90625 -13.90625 "/></g></g></g><g fill="#0c0c63" fill-opacity="1"><g transform="translate(100.732695, 138.632682)"><g><path d="M 2.203125 -20.4375 L 19.875 -20.4375 L 19.875 -15.53125 L 8.765625 -15.53125 L 8.765625 -12.71875 L 18.265625 -12.71875 L 18.265625 -8.015625 L 8.765625 -8.015625 L 8.765625 -4.90625 L 20.078125 -4.90625 L 20.078125 0 L 2.203125 0 Z M 2.203125 -20.4375 "/></g></g></g><g fill="#0c0c63" fill-opacity="1"><g transform="translate(122.171642, 138.632682)"><g><path d="M 16.8125 0 L 8.234375 -9.921875 L 8.234375 0 L 2.203125 0 L 2.203125 -20.4375 L 7.9375 -20.4375 L 16.515625 -10.359375 L 16.515625 -20.4375 L 22.546875 -20.4375 L 22.546875 0 Z M 16.8125 0 "/></g></g></g></svg>